<svg xmlns="http://www.w3.org/2000/svg" width="78" height="22" viewBox="0 0 78 22"><defs><style>.a{fill:#9767a9;}.b{fill:#fff;}</style></defs><g transform="translate(-254 -5209.286)"><g transform="translate(254 5209)"><circle class="a" cx="11" cy="11" r="11" transform="translate(0 0.286)"/><path class="b" d="M9.073.136a.36.36,0,0,0-.564,0,.521.521,0,0,0,0,.658l2.668,3.112H.4a.436.436,0,0,0-.4.464.436.436,0,0,0,.4.464H11.177L8.509,7.947a.521.521,0,0,0,0,.658.373.373,0,0,0,.282.135A.378.378,0,0,0,9.073,8.6L12.422,4.7a.521.521,0,0,0,0-.658Z" transform="translate(17.182 15.24) rotate(180)"/></g><g transform="translate(304.143 5209) rotate(90)"><circle class="a" cx="11" cy="11" r="11" transform="translate(0.286 0.143)"/><path class="b" d="M9.073.136a.36.36,0,0,0-.564,0,.521.521,0,0,0,0,.658l2.668,3.112H.4a.436.436,0,0,0-.4.464.436.436,0,0,0,.4.464H11.177L8.509,7.947a.521.521,0,0,0,0,.658.373.373,0,0,0,.282.135A.378.378,0,0,0,9.073,8.6L12.422,4.7a.521.521,0,0,0,0-.658Z" transform="translate(17.182 15.24) rotate(180)"/></g><g transform="translate(332 5231.286) rotate(180)"><circle class="a" cx="11" cy="11" r="11" transform="translate(0 0)"/><path class="b" d="M9.073.136a.36.36,0,0,0-.564,0,.521.521,0,0,0,0,.658l2.668,3.112H.4a.436.436,0,0,0-.4.464.436.436,0,0,0,.4.464H11.177L8.509,7.947a.521.521,0,0,0,0,.658.373.373,0,0,0,.282.135A.378.378,0,0,0,9.073,8.6L12.422,4.7a.521.521,0,0,0,0-.658Z" transform="translate(17.182 15.24) rotate(180)"/></g></g></svg>