<svg xmlns="http://www.w3.org/2000/svg" width="146" height="40.167" viewBox="0 0 146 40.167"><defs><style>.a,.c{fill:#9767a9;}.b{fill:#fff;}.c{fill-rule:evenodd;}</style></defs><g transform="translate(0 0.167)"><g transform="translate(0 -0.167)"><circle class="a" cx="20" cy="20" r="20" transform="translate(0 0)"/><path class="b" d="M208.813,138.345V141.5H206.5v3.859h2.313v10.578h4.75V145.353h3.188s.3-1.852.445-3.875h-3.609v-2.641a1.12,1.12,0,0,1,1.031-.922H217.2V133.9h-3.516C208.7,133.908,208.813,137.767,208.813,138.345Z" transform="translate(-191.852 -124.756)"/></g><g transform="translate(53 0)"><rect class="a" width="3.357" height="3.47" transform="translate(23.765 12.566)"/><path class="a" d="M63.132,68.038a5.582,5.582,0,0,1-11.164,0A5.447,5.447,0,0,1,52.5,65.7H48.8v9.58a1.594,1.594,0,0,0,1.584,1.584h14.37a1.594,1.594,0,0,0,1.584-1.584V65.7h-3.7A6.032,6.032,0,0,1,63.132,68.038Z" transform="translate(-37.553 -48.432)"/><path class="a" d="M66.58,71.357A3.3,3.3,0,0,0,69.9,68.038a3.442,3.442,0,0,0-.943-2.338H64.242a3.334,3.334,0,0,0,2.338,5.657Z" transform="translate(-46.582 -48.119)"/><path class="a" d="M34.2,14.2a20,20,0,1,0,20,20A20.01,20.01,0,0,0,34.2,14.2ZM44.338,40.809a3.544,3.544,0,0,1-3.529,3.529H27.626A3.544,3.544,0,0,1,24.1,40.809V27.591a3.544,3.544,0,0,1,3.529-3.529H40.809a3.544,3.544,0,0,1,3.529,3.529V40.809Z" transform="translate(-14.2 -14.2)"/></g><g transform="translate(106 0)"><path class="c" d="M0,20A20,20,0,1,1,20,40,19.952,19.952,0,0,1,0,20Zm30.25-4.917a2.774,2.774,0,0,0-1.917-1.917C26.667,12.75,20,12.75,20,12.75s-6.667,0-8.333.417A2.774,2.774,0,0,0,9.75,15.083a30.772,30.772,0,0,0-.417,5.25,30.772,30.772,0,0,0,.417,5.25A2.774,2.774,0,0,0,11.667,27.5c1.667.417,8.333.417,8.333.417s6.667,0,8.333-.417a2.774,2.774,0,0,0,1.917-1.917,31.308,31.308,0,0,0,.417-5.25A30.772,30.772,0,0,0,30.25,15.083Z"/><path class="c" d="M21.6,28.8v-8l6.4,4Z" transform="translate(-4.154 -4.16)"/></g></g></svg>